<svg width="506" height="636" viewBox="0 0 506 636" fill="none" xmlns="http://www.w3.org/2000/svg">
<rect width="116" height="116" rx="20" fill="#F4EBE7"/>
<rect x="130" width="116" height="116" rx="20" fill="#F4EBE7"/>
<rect x="260" width="116" height="116" rx="20" fill="#F4EBE7"/>
<path d="M390 20C390 8.9543 398.954 0 410 0H436C474.66 0 506 31.3401 506 70V96C506 107.046 497.046 116 486 116H410C398.954 116 390 107.046 390 96V20Z" fill="#F4EBE7"/>
<rect y="130" width="116" height="116" rx="20" fill="#F4EBE7"/>
<rect x="390" y="130" width="116" height="116" rx="20" fill="#F4EBE7"/>
<rect y="260" width="116" height="116" rx="20" fill="#F4EBE7"/>
<path d="M390 280C390 268.954 398.954 260 410 260H486C497.046 260 506 268.954 506 280V306C506 344.66 474.66 376 436 376H410C398.954 376 390 367.046 390 356V280Z" fill="#F4EBE7"/>
<rect y="390" width="116" height="116" rx="20" fill="url(#paint0_linear_1001_28)"/>
<rect x="130" y="390" width="116" height="116" rx="20" fill="url(#paint1_linear_1001_28)"/>
<rect x="260" y="390" width="116" height="116" rx="20" fill="url(#paint2_linear_1001_28)"/>
<path d="M390 410C390 398.954 398.954 390 410 390H436C474.66 390 506 421.34 506 460V486C506 497.046 497.046 506 486 506H410C398.954 506 390 497.046 390 486V410Z" fill="#F4EBE7"/>
<rect y="520" width="116" height="116" rx="20" fill="#F4EBE7"/>
<rect x="390" y="520" width="116" height="116" rx="20" fill="#F4EBE7"/>
<defs>
<linearGradient id="paint0_linear_1001_28" x1="58" y1="390" x2="58" y2="506" gradientUnits="userSpaceOnUse">
<stop stop-color="#C71F2C"/>
<stop offset="0.5" stop-color="#F52537"/>
<stop offset="1" stop-color="#FE5A69"/>
</linearGradient>
<linearGradient id="paint1_linear_1001_28" x1="188" y1="390" x2="188" y2="506" gradientUnits="userSpaceOnUse">
<stop stop-color="#C71F2C"/>
<stop offset="0.5" stop-color="#F52537"/>
<stop offset="1" stop-color="#FE5A69"/>
</linearGradient>
<linearGradient id="paint2_linear_1001_28" x1="318" y1="390" x2="318" y2="506" gradientUnits="userSpaceOnUse">
<stop stop-color="#C71F2C"/>
<stop offset="0.5" stop-color="#F52537"/>
<stop offset="1" stop-color="#FE5A69"/>
</linearGradient>
</defs>
</svg>
