<svg width="506" height="637" viewBox="0 0 506 637" fill="none" xmlns="http://www.w3.org/2000/svg">
<rect width="116" height="116" rx="20" fill="#F4EBE7"/>
<rect x="130" width="116" height="116" rx="20" fill="#F4EBE7"/>
<rect x="260" width="116" height="116" rx="20" fill="#F4EBE7"/>
<path d="M390 20C390 8.9543 398.954 0 410 0H436C474.66 0 506 31.3401 506 70V96C506 107.046 497.046 116 486 116H410C398.954 116 390 107.046 390 96V20Z" fill="#F4EBE7"/>
<rect y="130" width="116" height="116" rx="20" fill="#F4EBE7"/>
<rect x="390" y="130" width="116" height="116" rx="20" fill="#F4EBE7"/>
<rect y="260" width="116" height="116" rx="20" fill="#F4EBE7"/>
<path d="M390 280C390 268.954 398.954 260 410 260H486C497.046 260 506 268.954 506 280V306C506 344.66 474.66 376 436 376H410C398.954 376 390 367.046 390 356V280Z" fill="#F4EBE7"/>
<rect y="390.5" width="116" height="116" rx="20" fill="url(#paint0_linear_1001_50)"/>
<rect x="130" y="390" width="116" height="117" rx="20" fill="url(#paint1_linear_1001_50)"/>
<rect x="260" y="390.5" width="116" height="116" rx="20" fill="url(#paint2_linear_1001_50)"/>
<path d="M390 410.5C390 399.454 398.954 390.5 410 390.5H436C474.66 390.5 506 421.84 506 460.5V486.5C506 497.546 497.046 506.5 486 506.5H410C398.954 506.5 390 497.546 390 486.5V410.5Z" fill="#F4EBE7"/>
<rect y="521" width="116" height="116" rx="20" fill="#F4EBE7"/>
<rect x="390" y="521" width="116" height="116" rx="20" fill="#F4EBE7"/>
<defs>
<linearGradient id="paint0_linear_1001_50" x1="58" y1="390.5" x2="58" y2="506.5" gradientUnits="userSpaceOnUse">
<stop stop-color="#C71F2C"/>
<stop offset="0.5" stop-color="#F52537"/>
<stop offset="1" stop-color="#FE5A69"/>
</linearGradient>
<linearGradient id="paint1_linear_1001_50" x1="188" y1="390" x2="188" y2="507" gradientUnits="userSpaceOnUse">
<stop stop-color="#32BF27"/>
<stop offset="0.5" stop-color="#35F424"/>
<stop offset="1" stop-color="#6AFF5D"/>
</linearGradient>
<linearGradient id="paint2_linear_1001_50" x1="318" y1="390.5" x2="318" y2="506.5" gradientUnits="userSpaceOnUse">
<stop stop-color="#1C2CC6"/>
<stop offset="0.5" stop-color="#2738F6"/>
<stop offset="1" stop-color="#5767FC"/>
</linearGradient>
</defs>
</svg>
